<?xml version="1.0" standalone="no"?>
<!DOCTYPE svg PUBLIC "-//W3C//DTD SVG 20010904//EN"
 "http://www.w3.org/TR/2001/REC-SVG-20010904/DTD/svg10.dtd">
<svg version="1.0" xmlns="http://www.w3.org/2000/svg"
 width="160.000000pt" height="152.000000pt" viewBox="0 0 160.000000 152.000000"
 preserveAspectRatio="xMidYMid meet">
<metadata>
Created by potrace 1.10, written by Peter Selinger 2001-2011
</metadata>
<g transform="translate(0.000000,152.000000) scale(0.050000,-0.050000)"
fill="#ff9900" stroke="none">
<path d="M1399 2920 c-835 -133 -1377 -963 -1168 -1787 53 -207 228 -534 229
-428 1 19 5 18 18 -2 12 -20 20 -15 29 20 23 84 332 372 372 348 25 -16 89 28
97 66 8 39 -34 83 -81 83 -54 0 -49 10 185 337 l205 287 45 -77 45 -77 -53
-45 c-28 -25 -50 -55 -47 -65 3 -11 -5 -20 -16 -20 -12 0 -16 -8 -10 -18 6
-10 -23 -62 -64 -115 -170 -219 -191 -261 -177 -347 10 -64 6 -80 -18 -80 -16
0 -30 -11 -30 -23 0 -13 -5 -19 -11 -12 -7 6 0 30 14 52 27 43 14 76 -21 54
-34 -21 -386 -531 -379 -549 19 -49 267 -232 407 -301 780 -382 1672 -37 2006
777 64 156 52 192 -17 52 -33 -66 -53 -102 -46 -80 7 22 14 148 16 281 2 206
8 249 43 300 197 289 5 749 -312 749 -35 0 -40 8 -28 45 27 83 10 144 -60 209
-37 34 -65 68 -60 75 4 6 3 7 -3 3 -6 -4 -34 15 -61 42 -29 28 -63 45 -80 38
-17 -7 -25 -3 -18 9 16 25 -201 125 -364 168 -153 39 -440 54 -587 31z m369
-72 c71 -27 36 -88 -50 -88 -68 0 -99 -15 -187 -90 -128 -110 -124 -109 -142
-6 l-14 85 -31 -72 c-29 -67 -166 -177 -221 -177 -46 0 -21 59 46 111 38 29
75 70 82 91 6 21 44 52 83 68 98 41 132 39 116 -9 -8 -26 1 -45 28 -60 54 -29
79 12 29 49 -55 40 -9 76 118 92 58 7 107 14 108 15 2 2 18 -2 35 -9z m222
-63 c28 -30 46 -40 40 -22 -7 18 -5 38 5 44 24 15 185 -28 185 -49 0 -9 15
-11 33 -4 21 8 29 5 20 -9 -7 -12 27 -46 82 -80 143 -88 245 -199 245 -265 l0
-56 -265 -5 c-367 -8 -584 1 -592 23 -11 31 -78 59 -112 46 -68 -27 -20 -128
61 -128 76 0 115 -86 52 -116 -72 -34 -80 -32 -138 37 -28 33 -76 73 -107 89
-137 71 49 222 236 192 111 -18 117 -16 176 40 34 32 67 53 74 46 8 -7 29 -7
49 1 33 13 32 17 -11 52 -73 60 -163 47 -102 -14 50 -50 -78 -109 -205 -95
-106 12 -123 8 -199 -44 -45 -31 -101 -57 -124 -57 -25 -1 -51 -20 -62 -44
-11 -24 -38 -48 -60 -53 -23 -5 -56 -15 -74 -23 -37 -16 -81 81 -64 144 12 48
180 149 234 141 32 -5 12 -26 -93 -94 -74 -48 -131 -92 -126 -97 12 -12 295
177 414 276 70 58 113 78 180 83 77 5 88 12 86 51 -2 67 95 61 162 -10z m-762
-94 c-15 -38 -104 -96 -127 -81 -10 6 -30 -5 -45 -25 -37 -50 -197 -151 -184
-116 14 35 122 121 247 196 104 62 124 67 109 26z m-161 -186 c17 -28 -35 -76
-185 -173 -153 -98 -213 -101 -136 -6 77 96 297 218 321 179z m7 -121 c14 -9
-46 -58 -160 -130 -101 -63 -213 -133 -249 -156 -37 -24 -65 -32 -65 -19 0 12
22 30 48 40 27 10 54 35 60 55 6 20 81 78 167 130 170 104 165 102 199 80z
m57 -88 c16 -48 -84 -154 -202 -216 -32 -16 -134 -82 -228 -146 -183 -124
-196 -124 -155 -4 24 69 57 97 286 243 293 187 281 182 299 123z m259 -136 c7
-12 23 -15 35 -7 14 9 17 -2 10 -29 -7 -26 -2 -41 12 -38 13 2 23 -12 23 -31
0 -19 -9 -33 -20 -30 -11 3 -18 11 -15 19 2 8 -9 9 -25 3 -16 -6 -24 -21 -16
-34 7 -13 -8 -5 -34 17 -33 28 -44 31 -36 10 8 -22 -5 -31 -47 -34 -68 -5 -74
19 -12 50 l45 21 -47 2 c-28 0 -43 11 -38 26 10 32 95 45 95 15 0 -12 9 -17
19 -11 11 7 14 25 8 42 -13 33 24 40 43 9z m929 0 c-49 -27 -245 -31 -254 -5
-6 17 34 24 138 23 87 -1 134 -8 116 -18z m191 0 c-7 -11 -39 -20 -72 -20 -35
0 -55 8 -48 20 7 11 39 20 72 20 35 0 55 -8 48 -20z m-636 -86 l57 -75 318 -9
c355 -10 411 -31 411 -154 0 -103 -70 -148 -251 -163 -267 -22 -1008 -7 -958
19 24 13 78 46 121 75 61 42 101 53 193 53 l116 0 -35 53 c-33 51 -33 53 13
90 60 49 40 70 -25 28 -48 -32 -51 -31 -95 31 l-46 64 47 38 c57 46 65 44 134
-50z m-946 -109 c-53 -74 -122 -171 -154 -215 -31 -44 -71 -77 -87 -74 -40 9
-87 -33 -87 -76 0 -37 -92 -111 -105 -85 -4 8 -4 67 1 131 l8 116 253 169
c139 93 256 169 260 169 3 0 -37 -61 -89 -135z m1879 60 c-14 -58 -44 -89 -71
-72 -26 16 -18 45 24 87 54 54 63 50 47 -15z m-1591 -69 c6 -29 0 -30 -45 -10
-63 30 -67 59 -6 50 24 -3 47 -21 51 -40z m1664 -6 c0 -16 -10 -30 -22 -30
-14 0 -18 -19 -10 -48 11 -44 8 -46 -35 -26 -43 20 -44 25 -18 78 30 59 85 76
85 26z m-1492 -80 c27 -40 49 -50 117 -50 l84 0 -73 -50 c-41 -27 -82 -50 -92
-50 -28 0 -119 146 -109 175 13 38 37 30 73 -25z m1432 -152 c0 -48 -47 -42
-56 9 -4 19 6 33 25 33 18 0 31 -17 31 -42z m20 -84 c0 -14 -18 -41 -40 -59
-22 -19 -40 -26 -40 -15 0 11 -9 20 -20 20 -11 0 -20 -11 -20 -25 0 -15 -33
-27 -83 -30 -46 -2 -99 -19 -119 -37 -19 -17 -46 -25 -59 -17 -29 18 145 109
209 109 25 0 62 18 82 40 41 45 90 53 90 14z m-1293 -134 c39 0 44 32 8 47
-15 6 -11 10 10 11 19 1 35 -7 35 -18 0 -11 18 -20 40 -20 22 0 40 -10 40 -21
0 -12 -20 -19 -45 -15 -46 6 -93 -29 -131 -97 -20 -35 -22 -35 -35 -2 -7 20
-2 49 11 65 21 25 18 30 -17 30 -29 0 -46 -17 -55 -52 -12 -47 -16 -49 -45
-20 -29 29 -28 35 14 64 25 18 41 44 35 59 -16 42 35 46 70 6 18 -20 47 -37
65 -37z m-928 25 c0 -18 -93 -125 -108 -125 -25 0 -8 51 32 94 44 46 78 60 76
31z m1501 -25 c0 -24 -52 -38 -98 -26 -66 17 -49 42 28 42 39 0 70 -7 70 -16z
m-1369 -87 c-23 -17 -33 -40 -25 -60 9 -23 2 -33 -24 -33 -21 0 -43 -15 -50
-33 -11 -27 -8 -29 18 -7 19 15 30 17 30 4 0 -12 -10 -28 -21 -35 -12 -7 -17
-26 -11 -41 6 -15 6 -28 0 -28 -12 0 -73 142 -64 149 3 3 26 16 51 29 25 13
45 37 45 53 0 17 19 29 44 29 42 0 42 -1 7 -27z m1995 -69 c-127 -105 -339
-264 -353 -264 -5 0 -23 22 -41 50 -32 49 -32 50 78 122 60 41 110 81 110 91
0 9 20 17 45 18 25 0 90 18 145 38 144 54 144 51 16 -55z m152 -202 l-5 -232
-84 -120 c-317 -451 -868 -623 -1444 -451 l-106 31 109 85 c130 101 202 110
274 33 26 -29 93 -89 148 -134 91 -74 88 -68 -35 58 -157 161 -167 205 -64
266 88 52 349 25 406 -41 18 -20 44 -37 58 -37 14 0 31 -27 38 -60 7 -33 20
-60 30 -60 10 0 11 25 3 55 -14 55 -16 143 -3 153 59 48 267 172 288 172 16 0
29 7 29 16 0 26 200 166 220 154 10 -6 15 -54 10 -106 -9 -89 -9 -91 11 -27
12 37 18 102 15 145 l-6 77 -90 -68 c-49 -38 -113 -86 -141 -108 l-50 -39 -47
72 -47 71 41 32 c23 17 85 63 137 101 52 39 131 103 175 143 122 110 136 92
130 -181z m-1528 198 c7 -12 23 -15 36 -7 16 9 16 4 -1 -14 -14 -15 -25 -42
-25 -61 0 -77 49 -76 109 4 49 65 71 78 129 78 l70 0 -95 -60 c-52 -33 -99
-60 -105 -60 -7 0 -27 -16 -45 -36 -18 -19 -31 -32 -28 -27 7 14 -37 63 -57
63 -9 0 -12 -12 -6 -27 11 -29 -45 -86 -66 -66 -7 7 -2 13 12 13 13 0 18 10
10 23 -9 15 -5 18 12 7 18 -11 21 -8 10 10 -13 20 -25 16 -53 -19 -20 -25 -32
-53 -26 -63 6 -10 3 -18 -7 -18 -11 0 -23 22 -29 48 -6 31 -1 45 15 39 36 -13
79 95 46 117 -20 13 -17 23 13 46 46 35 64 37 81 10z m699 1 c-126 -126 -742
-493 -772 -460 -17 21 -38 32 -45 25 -6 -7 2 -28 19 -47 28 -31 21 -40 -80
-117 -141 -106 -140 -102 33 139 115 162 152 200 183 191 57 -14 113 22 113
74 1 88 184 182 380 196 94 6 174 13 179 15 5 1 0 -6 -10 -16z m-1645 -41 c12
0 34 -16 48 -35 15 -19 27 -24 27 -11 1 13 -8 29 -19 36 -30 19 -24 50 10 50
17 0 30 -9 30 -20 0 -11 18 -20 39 -20 27 0 36 -10 28 -30 -6 -16 -3 -30 7
-30 9 0 20 -27 22 -60 3 -33 -5 -60 -17 -60 -45 0 -88 -62 -57 -82 15 -9 18
-18 7 -18 -26 0 -106 58 -82 59 10 1 -2 17 -25 36 -31 25 -45 63 -50 135 -3
55 -2 89 2 75 5 -14 19 -25 30 -25z m1962 -30 c-111 -75 -180 -89 -199 -40
-17 45 -121 38 -147 -10 -21 -40 -80 -56 -80 -22 0 67 189 142 358 142 l171 0
-103 -70z m-1546 -107 c0 -44 -20 -70 -92 -122 l-92 -66 87 122 c101 142 97
139 97 66z m309 -84 c-51 -111 -61 -126 -85 -134 -13 -5 -24 6 -24 23 0 18 9
32 21 32 22 0 17 75 -8 115 -9 14 -6 25 6 25 11 0 21 -9 21 -20 0 -38 35 -20
47 25 8 31 18 38 33 23 14 -14 11 -41 -11 -89z m811 6 c91 -136 91 -129 7
-113 -42 8 -89 31 -103 51 -46 66 -144 34 -144 -46 0 -20 -29 -51 -65 -69 -36
-19 -92 -55 -126 -80 -48 -37 -73 -43 -120 -31 -57 16 -51 21 201 189 302 200
285 195 350 99z m32 -145 c26 0 66 -18 87 -39 31 -31 72 -41 194 -45 l154 -6
-104 -64 c-57 -36 -117 -59 -133 -53 -17 6 -43 1 -58 -11 -21 -17 -71 -15
-205 8 l-177 31 -80 -57 c-94 -66 -175 -61 -180 11 -4 59 220 205 294 191 30
-6 59 3 75 23 15 18 40 28 56 22 15 -6 50 -11 77 -11z m-952 -49 c0 -32 -56
-81 -74 -64 -19 20 31 117 54 103 11 -7 20 -24 20 -39z m-60 -119 c0 -15 -19
-49 -41 -75 l-41 -47 22 46 c17 35 17 54 -1 75 -20 24 -16 29 19 29 23 0 42
-13 42 -28z m360 -32 c0 -33 -7 -60 -16 -60 -9 0 -73 -46 -142 -102 -70 -56
-120 -90 -111 -77 11 18 1 22 -35 15 -60 -11 -71 44 -12 59 21 6 34 22 28 37
-5 14 1 22 14 18 13 -5 74 31 134 80 131 105 140 107 140 30z m-443 -101 c25
-32 39 -59 31 -59 -21 0 -108 83 -108 103 0 32 30 14 77 -44z m552 21 c14 0
26 -22 26 -50 0 -27 -7 -50 -15 -50 -8 0 -61 -37 -118 -82 -106 -85 -226 -88
-214 -7 6 40 236 210 269 199 14 -6 38 -10 52 -10z m-581 -111 c6 -18 -2 -36
-20 -42 -37 -15 -78 21 -59 51 20 32 65 27 79 -9z"/>
<path d="M2103 2688 c93 -102 90 -133 -23 -246 -56 -56 -89 -102 -74 -102 16
0 71 45 122 100 57 61 111 100 138 101 38 0 32 11 -46 80 -119 106 -190 146
-117 67z"/>
<path d="M2013 1910 c3 -62 -8 -78 -98 -144 -56 -41 -91 -77 -78 -82 12 -4 62
22 111 57 49 35 99 57 111 49 45 -27 121 8 121 57 0 52 -67 124 -97 105 -11
-7 -26 -4 -33 8 -25 40 -41 19 -37 -50z"/>
<path d="M2433 1831 c-65 -58 -115 -116 -110 -128 4 -12 70 36 147 106 77 71
127 129 110 129 -16 0 -83 -48 -147 -107z"/>
<path d="M2474 764 c-48 -52 -42 -67 15 -41 38 18 57 17 81 -3 17 -14 36 -21
42 -14 6 6 -10 22 -35 35 -26 14 -52 33 -58 42 -7 10 -27 1 -45 -19z"/>
<path d="M3046 1470 c0 -66 4 -91 8 -55 5 36 5 90 0 120 -4 30 -8 1 -8 -65z"/>
</g>
</svg>
