<svg xmlns="http://www.w3.org/2000/svg" data-name="Layer 1" width="667.53453" height="225.15757" viewBox="0 0 667.53453 225.15757" xmlns:xlink="http://www.w3.org/1999/xlink"><path d="M321.09309,328.11645c-25.7099,54.12678-25.44133,119.91019.70965,173.82524C321.5234,448.80225,321.24406,395.66281,321.09309,328.11645Z" transform="translate(-263.24848 -289.3661)" fill="#eb5d1e"/><path d="M559.02733,363.70251c43.32481,18.97386,91.92535,17.44022,134.46822-4.2433C646.07435,361.59733,598.65316,363.73547,559.02733,363.70251Z" transform="translate(-263.24848 -289.3661)" fill="#eb5d1e"/><path d="M840.01677,407.39331l72.87016-103.043c-2.84532,48.4367-28.18861,95.08792-67.27446,123.837C842.80439,421.3719,839.99631,414.55654,840.01677,407.39331Z" transform="translate(-263.24848 -289.3661)" fill="#eb5d1e"/><path d="M396.31268,382.4298c-1.18937-.01117-2.38313-.02593-3.57569-.03431a232.94493,232.94493,0,0,0-66.08564,8.53545c-3.06339-29.09547-7.73429-58.06726-13.121-86.77612A655.26145,655.26145,0,0,0,311.338,395.619a314.40265,314.40265,0,0,0-48.08949,20.93227c16.30008-2.46452,32.5403-5.37032,48.64288-8.871a673.99114,673.99114,0,0,0,15.34051,106.8434c4.32738-36.83975,3.90166-73.78.67668-110.554,15.10232-3.7273,30.05463-8.05069,44.75677-13.23707C380.58754,388.07981,388.44672,385.24383,396.31268,382.4298Z" transform="translate(-263.24848 -289.3661)"/><path d="M559.02733,363.31091c42.91148,3.15636,86.42262,1.39684,128.26-9.20934C644.30008,349.05682,600.96529,353.0319,559.02733,363.31091Z" transform="translate(-263.24848 -289.3661)"/><path d="M891.79355,388.19471A453.90543,453.90543,0,0,0,930.783,438.07563a496.803,496.803,0,0,0-29.79649-62.10657c9.15069-12.70363,16.59812-24.869,20.77029-35.23543a308.66906,308.66906,0,0,0-26.39356,25.6327,550.1821,550.1821,0,0,0-55.34659-77.00023,510.9999,510.9999,0,0,0,45.15615,88.641,327.3059,327.3059,0,0,0-42.19729,65.16438A653.64182,653.64182,0,0,0,891.79355,388.19471Z" transform="translate(-263.24848 -289.3661)"/></svg>